<svg width="70" height="70" viewBox="0 0 70 70" fill="none" xmlns="http://www.w3.org/2000/svg">
<path d="M35.0134 51.7731C44.2727 51.7731 51.7789 44.2673 51.7789 35.0084C51.7789 25.7495 44.2727 18.2437 35.0134 18.2437C25.754 18.2437 18.2479 25.7495 18.2479 35.0084C18.2479 44.2673 25.754 51.7731 35.0134 51.7731Z" fill="url(#paint0_linear_2_547)"/>
<path d="M50.7697 3.50075L46.8298 13.0131C45.5455 16.1112 40.8981 14.1866 42.1824 11.0885L46.1223 1.57616C47.4065 -1.52196 52.0539 0.402627 50.7697 3.50075ZM27.8143 58.9149L23.8744 68.4272C22.5902 71.5253 17.9427 69.6007 19.227 66.5026L23.1669 56.9903C24.4511 53.8922 29.0985 55.8168 27.8143 58.9149V58.9149ZM68.4271 23.88L58.9144 27.8197C55.8161 29.1038 53.8914 24.4567 56.9897 23.1725L66.5024 19.2328C69.6007 17.9486 71.5254 22.5958 68.4271 23.88V23.88ZM13.0103 46.8342L3.49756 50.7739C0.399294 52.0581 -1.52539 47.4109 1.57288 46.1268L11.0856 42.187C14.1839 40.9029 16.1086 45.55 13.0103 46.8342V46.8342ZM66.5024 50.7773L56.9897 46.8376C53.8914 45.5534 55.8161 40.9062 58.9144 42.1904L68.4271 46.1301C71.5254 47.4143 69.6007 52.0615 66.5024 50.7773ZM11.0856 27.823L1.57288 23.8833C-1.52539 22.5991 0.399294 17.9519 3.49756 19.2361L13.0103 23.1758C16.1086 24.46 14.1839 29.1072 11.0856 27.823V27.823ZM23.871 1.57281L27.8109 11.0851C29.0952 14.1832 24.4478 16.1078 23.1635 13.0097L19.2236 3.4974C17.9394 0.399274 22.5868 -1.52532 23.871 1.57281V1.57281ZM46.8264 56.9869L50.7663 66.4993C52.0505 69.5974 47.4031 71.522 46.1189 68.4238L42.179 58.9115C40.8948 55.8134 45.5422 53.8888 46.8264 56.9869V56.9869Z" fill="#FFB300"/>
<defs>
<linearGradient id="paint0_linear_2_547" x1="35.0134" y1="18.2437" x2="35.0134" y2="51.3262" gradientUnits="userSpaceOnUse">
<stop offset="0.498958" stop-color="#FFB300"/>
<stop offset="0.577083" stop-color="#FFB300"/>
<stop offset="1" stop-color="#FFB300"/>
</linearGradient>
</defs>
</svg>
