<svg width="70" height="71" viewBox="0 0 70 71" fill="none" xmlns="http://www.w3.org/2000/svg">
<path d="M44.7643 49.4966C51.8279 49.4966 57.5541 42.0751 57.5541 32.9202C57.5541 23.7653 51.8279 16.3438 44.7643 16.3438C37.7007 16.3438 31.9745 23.7653 31.9745 32.9202C31.9745 42.0751 37.7007 49.4966 44.7643 49.4966Z" fill="url(#paint0_linear_2_531)"/>
<path d="M43.1015 2.79249L43.9329 8.91333C44.4892 12.9953 39.7634 14.0727 39.2102 9.99079L38.3789 3.86995C37.8225 -0.211988 42.5484 -1.28945 43.1015 2.79249ZM60.0256 10.0903L57.2758 15.1834C55.4405 18.5774 51.514 15.0134 53.3461 11.6194L56.0959 6.52632C57.9313 3.1323 61.8577 6.69623 60.0256 10.0903ZM27.1527 13.1403L31.0823 16.7042C33.701 19.083 30.9512 24.1719 28.3325 21.7973L24.4029 18.2334C21.7842 15.8547 24.534 10.7657 27.1527 13.1403ZM61.2023 44.0387L65.1319 47.6027C67.7506 49.9814 65.0008 55.0703 62.3821 52.6958L58.4525 49.1318C55.8338 46.7531 58.5836 41.6642 61.2023 44.0387ZM68.0128 30.761L63.2902 31.8385C60.1407 32.5596 59.3094 26.4346 62.4589 25.7177L67.1815 24.6402C70.331 23.9191 71.1623 30.0441 68.0128 30.761Z" fill="#FFB300"/>
<path d="M12.7898 70.2171C5.72662 70.2171 0 62.795 0 53.6407C0 44.4864 5.72662 37.0643 12.7898 37.0643C14.1231 37.0643 15.4053 37.3295 16.6139 37.8185C18.4141 30.1851 23.8945 24.632 30.3757 24.632C38.3214 24.632 44.7642 32.9823 44.7642 43.2804C44.7642 44.2543 44.7067 45.2074 44.5948 46.1398C45.6435 45.6301 46.7754 45.3525 47.9617 45.3525C53.2599 45.3525 57.554 50.918 57.554 57.7848C57.554 64.6516 53.2599 70.2171 47.9617 70.2171H12.7898Z" fill="url(#paint1_linear_2_531)"/>
<path d="M15.9872 43.2804C15.9872 53.5785 22.4301 61.9288 30.3757 61.9288C37.5732 61.9288 43.5332 55.0828 44.5948 46.1398C45.6435 45.6301 46.7754 45.3524 47.9617 45.3524C53.2599 45.3524 57.554 50.9179 57.554 57.7847C57.554 64.6515 53.2599 70.217 47.9617 70.217H12.7898C5.72662 70.217 0 62.7949 0 53.6406C0 44.4863 5.72662 37.0642 12.7898 37.0642C14.1231 37.0642 15.4053 37.3294 16.6139 37.8184C16.2047 39.5465 15.9872 41.3782 15.9872 43.2804Z" fill="url(#paint2_radial_2_531)"/>
<defs>
<linearGradient id="paint0_linear_2_531" x1="57.5541" y1="16.3438" x2="35.1462" y2="33.4102" gradientUnits="userSpaceOnUse">
<stop stop-color="#FFB300"/>
<stop offset="0.472916" stop-color="#FFB300"/>
</linearGradient>
<linearGradient id="paint1_linear_2_531" x1="28.777" y1="24.632" x2="28.777" y2="70.2171" gradientUnits="userSpaceOnUse">
<stop stop-color="#9FC7FF"/>
<stop offset="1" stop-color="#9BC1F5"/>
</linearGradient>
<radialGradient id="paint2_radial_2_531" cx="0" cy="0" r="1" gradientUnits="userSpaceOnUse" gradientTransform="translate(17.6946 -47.2612) rotate(-90) scale(43.4248 10.7067)">
<stop stop-color="#486DA8" stop-opacity="0.4"/>
<stop offset="1" stop-color="#486DA8" stop-opacity="0"/>
</radialGradient>
</defs>
</svg>
