<svg width="69" height="52" viewBox="0 0 69 52" fill="none" xmlns="http://www.w3.org/2000/svg">
<path opacity="0.32" d="M58.65 35.2258C64.3666 35.2258 69 30.7203 69 25.1613C69 19.6023 64.3666 15.0968 58.65 15.0968H58.543C58.612 14.5466 58.65 13.9863 58.65 13.4194C58.65 6.00852 52.471 0 44.85 0C38.8125 0 33.6789 3.77084 31.809 9.02116C30.4807 8.60852 29.0697 8.3871 27.6 8.3871C19.9789 8.3871 13.8 14.3956 13.8 21.8065C13.8 29.2173 19.9789 35.2258 27.6 35.2258C28.7902 35.2258 29.946 35.0782 31.05 34.8031V35.2258H58.65Z" fill="#73A5E6"/>
<path d="M13.8 52C6.17895 52 0 45.9915 0 38.5807C0 31.1698 6.17895 25.1613 13.8 25.1613C15.2386 25.1613 16.6221 25.376 17.9262 25.7719C19.8685 19.5923 25.7818 15.0968 32.775 15.0968C41.3482 15.0968 48.3 21.8568 48.3 30.1936C48.3 30.982 48.2379 31.7536 48.1171 32.5084C49.2487 32.0958 50.47 31.871 51.75 31.871C57.4666 31.871 62.1 36.3765 62.1 41.9355C62.1 47.4945 57.4666 52 51.75 52H13.8Z" fill="url(#paint0_linear_2_551)"/>
<path d="M17.25 30.1936C17.25 38.5303 24.2017 45.2903 32.775 45.2903C40.5409 45.2903 46.9717 39.7482 48.1171 32.5084C49.2487 32.0958 50.47 31.871 51.75 31.871C57.4666 31.871 62.1 36.3765 62.1 41.9355C62.1 47.4945 57.4666 52 51.75 52H13.8C6.17895 52 0 45.9915 0 38.5807C0 31.1698 6.17895 25.1613 13.8 25.1613C15.2386 25.1613 16.6221 25.376 17.9262 25.7719C17.4846 27.1709 17.25 28.6537 17.25 30.1936Z" fill="url(#paint1_radial_2_551)"/>
<defs>
<linearGradient id="paint0_linear_2_551" x1="31.05" y1="15.0968" x2="31.05" y2="52" gradientUnits="userSpaceOnUse">
<stop stop-color="#9FC7FF"/>
<stop offset="1" stop-color="#9BC1F5"/>
</linearGradient>
<radialGradient id="paint1_radial_2_551" cx="0" cy="0" r="1" gradientUnits="userSpaceOnUse" gradientTransform="translate(24.0533 -49.8136) rotate(-90) scale(35.1543 11.5524)">
<stop stop-color="#486DA8" stop-opacity="0.4"/>
<stop offset="1" stop-color="#486DA8" stop-opacity="0"/>
</radialGradient>
</defs>
</svg>
