<svg width="70" height="71" viewBox="0 0 70 71" fill="none" xmlns="http://www.w3.org/2000/svg">
<path d="M44.7643 37.6739C51.8279 37.6739 57.5541 32.0751 57.5541 25.1687C57.5541 18.2622 51.8279 12.6635 44.7643 12.6635C37.7007 12.6635 31.9745 18.2622 31.9745 25.1687C31.9745 32.0751 37.7007 37.6739 44.7643 37.6739Z" fill="url(#paint0_linear_2_531)"/>
<path d="M43.1015 2.44041L43.9329 7.05797C44.4892 10.1374 39.7634 10.9502 39.2102 7.87081L38.3789 3.25325C37.8226 0.173838 42.5484 -0.639003 43.1015 2.44041ZM60.0256 7.94585L57.2758 11.7881C55.4405 14.3485 51.514 11.6599 53.3462 9.09945L56.096 5.25722C57.9313 2.69677 61.8578 5.3854 60.0256 7.94585ZM27.1527 10.2468L31.0823 12.9354C33.701 14.7299 30.9512 18.569 28.3325 16.7777L24.4029 14.089C21.7842 12.2945 24.534 8.45543 27.1527 10.2468ZM61.2023 33.5566L65.132 36.2452C67.7507 38.0397 65.0009 41.8788 62.3822 40.0874L58.4525 37.3988C55.8338 35.6043 58.5836 31.7652 61.2023 33.5566ZM68.0129 23.5399L63.2902 24.3527C60.1407 24.8967 59.3094 20.276 62.4589 19.7352L67.1815 18.9223C70.331 18.3783 71.1623 22.999 68.0129 23.5399Z" fill="#FFB300"/>
<path d="M12.7898 53.3055C5.72663 53.3055 0 47.7063 0 40.8002C0 33.8942 5.72663 28.295 12.7898 28.295C14.1231 28.295 15.4053 28.4951 16.6139 28.864C18.4141 23.1053 23.8945 18.9161 30.3758 18.9161C38.3214 18.9161 44.7643 25.2156 44.7643 32.9845C44.7643 33.7192 44.7067 34.4382 44.5948 35.1416C45.6436 34.7571 46.7755 34.5476 47.9617 34.5476C53.2599 34.5476 57.5541 38.7463 57.5541 43.9266C57.5541 49.1069 53.2599 53.3055 47.9617 53.3055H12.7898Z" fill="url(#paint1_linear_2_531)"/>
<path d="M15.9872 32.9845C15.9872 40.7534 22.4301 47.0529 30.3758 47.0529C37.5732 47.0529 43.5333 41.8882 44.5948 35.1417C45.6436 34.7571 46.7755 34.5477 47.9617 34.5477C53.2599 34.5477 57.5541 38.7463 57.5541 43.9266C57.5541 49.1069 53.2599 53.3055 47.9617 53.3055H12.7898C5.72663 53.3055 0 47.7063 0 40.8003C0 33.8943 5.72663 28.295 12.7898 28.295C14.1231 28.295 15.4053 28.4951 16.6139 28.864C16.2047 30.1677 15.9872 31.5495 15.9872 32.9845Z" fill="url(#paint2_radial_2_531)"/>
<path d="M14.7356 59.4317L11.3783 67.2444C10.8667 68.4386 11.4391 69.8142 12.6605 70.3144C13.8819 70.8146 15.2888 70.255 15.8004 69.0607L19.1577 61.2481C19.6693 60.0538 19.0969 58.6783 17.8755 58.1781C16.6541 57.6778 15.2472 58.2375 14.7356 59.4317V59.4317ZM40.3152 59.4317L36.9579 67.2444C36.4463 68.4386 37.0186 69.8142 38.2401 70.3144C39.4615 70.8146 40.8684 70.255 41.38 69.0607L44.7373 61.2481C45.2489 60.0538 44.6765 58.6783 43.4551 58.1781C42.2337 57.6778 40.8268 58.2375 40.3152 59.4317V59.4317ZM27.5254 56.3054L24.1681 64.118C23.6565 65.3123 24.2288 66.6879 25.4503 67.1881C26.6717 67.6883 28.0786 67.1287 28.5902 65.9344L31.9475 58.1218C32.4591 56.9275 31.8867 55.552 30.6653 55.0517C29.4439 54.5515 28.037 55.1111 27.5254 56.3054Z" fill="#66AFEB"/>
<defs>
<linearGradient id="paint0_linear_2_531" x1="57.5541" y1="12.6635" x2="40.0198" y2="30.3657" gradientUnits="userSpaceOnUse">
<stop stop-color="#FFB300"/>
<stop offset="0.373958" stop-color="#FFB300"/>
</linearGradient>
<linearGradient id="paint1_linear_2_531" x1="28.777" y1="18.9161" x2="28.777" y2="53.3055" gradientUnits="userSpaceOnUse">
<stop stop-color="#9FC7FF"/>
<stop offset="1" stop-color="#9BC1F5"/>
</linearGradient>
<radialGradient id="paint2_radial_2_531" cx="0" cy="0" r="1" gradientUnits="userSpaceOnUse" gradientTransform="translate(17.6946 -35.3201) rotate(-90) scale(32.7597 10.7067)">
<stop stop-color="#486DA8" stop-opacity="0.4"/>
<stop offset="1" stop-color="#486DA8" stop-opacity="0"/>
</radialGradient>
</defs>
</svg>
