<svg width="70" height="71" viewBox="0 0 70 71" fill="none" xmlns="http://www.w3.org/2000/svg">
<path d="M54.4445 30.9351C63.0356 30.9351 70 24.1586 70 15.7993C70 7.44 63.0356 0.663452 54.4445 0.663452C45.8534 0.663452 38.8889 7.44 38.8889 15.7993C38.8889 24.1586 45.8534 30.9351 54.4445 30.9351Z" fill="url(#paint0_linear_2_531)"/>
<path d="M15.5556 49.855C6.965 49.855 0 43.0779 0 34.7191C0 26.3603 6.965 19.5833 15.5556 19.5833C17.1772 19.5833 18.7367 19.8254 20.2067 20.2719C22.3961 13.3019 29.0617 8.23138 36.9444 8.23138C46.6083 8.23138 54.4444 15.8561 54.4444 25.2592C54.4444 26.1484 54.3744 27.0188 54.2383 27.8701C55.5139 27.4047 56.8905 27.1512 58.3333 27.1512C64.7772 27.1512 70 32.2331 70 38.5031C70 44.7731 64.7772 49.855 58.3333 49.855H15.5556Z" fill="url(#paint1_linear_2_531)"/>
<path d="M19.4444 25.2593C19.4444 34.6624 27.2806 42.2871 36.9444 42.2871C45.6983 42.2871 52.9472 36.036 54.2383 27.8702C55.5139 27.4048 56.8905 27.1512 58.3333 27.1512C64.7772 27.1512 70 32.2331 70 38.5031C70 44.7731 64.7772 49.855 58.3333 49.855H15.5556C6.965 49.855 0 43.0779 0 34.7192C0 26.3604 6.965 19.5833 15.5556 19.5833C17.1772 19.5833 18.7367 19.8255 20.2067 20.272C19.7089 21.8499 19.4444 23.5224 19.4444 25.2593Z" fill="url(#paint2_radial_2_531)"/>
<path d="M17.9222 57.2699L13.8388 66.726C13.2166 68.1715 13.9127 69.8364 15.3983 70.4419C16.8838 71.0473 18.5949 70.37 19.2172 68.9245L23.3005 59.4684C23.9227 58.0229 23.2266 56.3579 21.7411 55.7525C20.2555 55.1471 18.5444 55.8244 17.9222 57.2699V57.2699ZM49.0333 57.2699L44.9499 66.726C44.3277 68.1715 45.0238 69.8364 46.5094 70.4419C47.9949 71.0473 49.7061 70.37 50.3283 68.9245L54.4116 59.4684C55.0338 58.0229 54.3377 56.3579 52.8522 55.7525C51.3666 55.1471 49.6555 55.8244 49.0333 57.2699V57.2699ZM33.4777 53.4859L29.3944 62.942C28.7722 64.3875 29.4683 66.0525 30.9538 66.6579C32.4394 67.2633 34.1505 66.586 34.7727 65.1405L38.8561 55.6844C39.4783 54.2389 38.7822 52.574 37.2966 51.9686C35.8111 51.3631 34.0999 52.0405 33.4777 53.4859Z" fill="#66AFEB"/>
<defs>
<linearGradient id="paint0_linear_2_531" x1="70" y1="0.663452" x2="48.7785" y2="22.1925" gradientUnits="userSpaceOnUse">
<stop stop-color="#4F667A"/>
<stop offset="0.597916" stop-color="#4F667A"/>
</linearGradient>
<linearGradient id="paint1_linear_2_531" x1="35" y1="8.23138" x2="35" y2="49.855" gradientUnits="userSpaceOnUse">
<stop stop-color="#9FC7FF"/>
<stop offset="1" stop-color="#9BC1F5"/>
</linearGradient>
<radialGradient id="paint2_radial_2_531" cx="0" cy="0" r="1" gradientUnits="userSpaceOnUse" gradientTransform="translate(21.521 -57.4139) rotate(-90) scale(39.651 13.022)">
<stop stop-color="#486DA8" stop-opacity="0.4"/>
<stop offset="1" stop-color="#486DA8" stop-opacity="0"/>
</radialGradient>
</defs>
</svg>
