<svg width="70" height="54" viewBox="0 0 70 54" fill="none" xmlns="http://www.w3.org/2000/svg">
<path d="M36.8375 0.955497C36.5969 1.0374 36.3453 1.26126 36.2141 1.5015C36.132 1.64892 36.1156 2.04205 36.0938 5.18158L36.0664 8.6924L33.9883 6.68856C32.7633 5.50919 31.8336 4.6465 31.7188 4.60282C31.5984 4.54822 31.4125 4.52638 31.1883 4.54276C30.9094 4.55914 30.8109 4.5919 30.6414 4.7284C30.368 4.9468 30.1875 5.30171 30.1875 5.62931C30.1875 5.78765 30.2313 5.96237 30.3133 6.10433C30.3844 6.24084 31.2266 7.0926 32.457 8.2829C33.5727 9.35307 34.8414 10.587 35.2898 11.0238L36.0938 11.821L36.0828 14.076L36.0664 16.3256L34.8141 15.1517C34.125 14.5019 33.4961 13.9395 33.4141 13.8958C33.1789 13.7757 32.8453 13.7375 32.6156 13.8139C32.1016 13.9777 31.8281 14.3599 31.8281 14.895C31.8281 15.1735 31.8555 15.2554 32.0086 15.4738C32.1016 15.6103 33.0641 16.5494 34.1414 17.5595L36.0938 19.3941V21.8839V24.3792L35.8039 24.0789C35.6508 23.9151 34.1195 22.3426 32.4023 20.5844C30.6906 18.8263 29.0336 17.1282 28.7219 16.8115C28.3938 16.4784 28.1695 16.2 28.1859 16.1563C28.1969 16.1126 28.2242 15.4028 28.2461 14.5783C28.2625 13.7539 28.3008 12.438 28.3281 11.6572C28.4102 9.33669 28.4102 8.56136 28.3117 8.37572C28.1039 7.97713 27.743 7.75327 27.3055 7.75327C26.7641 7.75873 26.2883 8.15186 26.2281 8.64326C26.2117 8.76884 26.1734 9.77895 26.1406 10.8928C26.0859 12.9076 26.0422 13.9887 26.0094 14.016C26.0039 14.0269 25.7633 13.7921 25.4789 13.4973C22.6023 10.5324 20.6172 8.54498 20.4695 8.47946C19.8242 8.21192 19.0148 8.67056 18.9383 9.34215C18.8781 9.89362 18.8836 9.90454 20.825 11.892C21.8094 12.9021 23.007 14.1306 23.4883 14.622L24.3633 15.5229L23.1602 15.4847C22.4984 15.4629 21.2461 15.4247 20.3711 15.3919C18.6977 15.3373 18.5609 15.3537 18.2273 15.5721C17.9977 15.7304 17.7734 16.1672 17.7734 16.4566C17.7789 16.9644 18.1563 17.423 18.6594 17.5213C18.818 17.5541 19.9828 17.6032 21.2461 17.636C22.5094 17.6687 24.232 17.7179 25.0742 17.7452L26.6055 17.7943L26.9609 18.1711C27.1578 18.3786 28.7219 19.9783 30.4336 21.731C32.1508 23.4837 33.7422 25.1217 33.9773 25.3674L34.4094 25.8261H31.8719H29.3344L27.4805 23.8441C26.4633 22.7575 25.5445 21.8075 25.4461 21.7365C25.1891 21.5454 24.7133 21.5181 24.3797 21.6655C24.0078 21.8293 23.7344 22.2607 23.7344 22.6811C23.7398 23.0305 23.9422 23.309 25.107 24.543C25.7414 25.22 26.25 25.7879 26.2391 25.8042C26.2227 25.8152 25.2 25.8097 23.9586 25.7933L21.7109 25.7551L21.2898 25.3128C21.0547 25.0671 19.8461 23.8277 18.6047 22.55C16.0891 19.9729 15.9961 19.8964 15.482 19.951C15.1156 19.9838 14.793 20.1913 14.618 20.5025C14.4484 20.8028 14.4484 21.2505 14.618 21.5563C14.6836 21.6764 15.6023 22.6538 16.6523 23.7239C17.7078 24.7941 18.5773 25.695 18.5828 25.7223C18.5938 25.7496 17.1992 25.7715 15.2031 25.7715C11.9219 25.7715 11.8016 25.7769 11.5938 25.8807C11.2711 26.0445 10.9922 26.4867 10.9922 26.8307C10.9922 27.2348 11.293 27.677 11.6758 27.8518C11.8781 27.9446 12.1242 27.9555 15.2742 27.9555C17.1281 27.9555 18.6484 27.9719 18.6484 27.9883C18.6484 28.0046 17.757 28.9274 16.6688 30.0358C15.575 31.1442 14.6289 32.1597 14.5578 32.2853C14.3773 32.6075 14.4047 33.0934 14.618 33.3992C14.968 33.9015 15.6734 34.0325 16.1547 33.6776C16.2477 33.6067 17.3086 32.5419 18.5117 31.3134C19.7094 30.0795 20.9289 28.8346 21.2133 28.5397L21.7383 28.0101L23.9914 28.021L26.25 28.0374L25.1016 29.2386C24.4672 29.8993 23.9039 30.5326 23.8438 30.6418C23.6961 30.9148 23.6961 31.3844 23.8438 31.6683C24.1117 32.187 24.8008 32.4 25.3313 32.127C25.4133 32.0833 26.343 31.1442 27.4039 30.0303L29.3289 28.0101H31.1172C32.1016 28.0101 33.3156 28.0265 33.8133 28.0483L34.7266 28.0811L34.1086 28.7144C32.4188 30.4617 27.5789 35.4685 27.1578 35.9108L26.6766 36.4186H22.8867C20.2016 36.4186 19.0477 36.435 18.9164 36.4787C18.4297 36.6425 18.1563 37.0301 18.1563 37.5543C18.1563 37.9583 18.3641 38.3187 18.7141 38.5043L18.9492 38.6299L21.7328 38.6463L24.5164 38.6627L23.7508 39.438C22.6625 40.5464 19.9336 43.3692 19.5398 43.7951C19.1023 44.2702 19.0148 44.5486 19.1516 45.0127C19.2938 45.4768 19.8953 45.87 20.3328 45.7771C20.7648 45.6843 20.8961 45.5642 23.4445 42.927L26.0039 40.2789L26.0313 43.1945C26.0531 45.2748 26.075 46.143 26.1242 46.2194C26.2227 46.3941 26.5398 46.6726 26.7039 46.7326C27.0977 46.8801 27.65 46.7545 27.9289 46.4542C28.2242 46.1375 28.2188 46.2412 28.2188 41.9496L28.2242 37.9747L29.6023 36.5551C30.357 35.7743 32.0195 34.0544 33.2992 32.733C34.5734 31.4117 35.7273 30.2214 35.8531 30.0849L36.0938 29.8392L36.0883 32.3508L36.0828 34.8625L34.0813 36.7462C32.982 37.7836 32.0305 38.7118 31.9703 38.8156C31.8391 39.0449 31.8281 39.5417 31.9539 39.7765C32.0633 39.9949 32.3641 40.2734 32.5555 40.3444C32.7742 40.4263 33.168 40.4208 33.3867 40.328C33.4906 40.2843 33.9391 39.9021 34.3875 39.4871C34.8305 39.0722 35.3938 38.5371 35.6453 38.3023L36.0938 37.8819V40.1369V42.3974L33.25 45.1438C31.3523 46.9729 30.368 47.9666 30.2914 48.114C30.1273 48.4307 30.1656 48.8784 30.3734 49.1951C30.6633 49.6374 31.2813 49.7957 31.7734 49.5555C31.8773 49.5064 32.8891 48.5672 34.0156 47.4752L36.0664 45.4932L36.0938 48.9112C36.1266 52.7169 36.0992 52.493 36.4984 52.8425C36.9195 53.2083 37.5102 53.2083 37.9313 52.8425C38.3305 52.493 38.3031 52.7114 38.3359 48.9276L38.3633 45.526L40.3867 47.5134C42.0602 49.1624 42.4594 49.5227 42.6727 49.6046C43.1813 49.7957 43.7609 49.5773 44.0125 49.0859C44.1875 48.7529 44.1656 48.2505 43.9688 47.983C43.8922 47.8793 42.5961 46.5852 41.0867 45.1001L38.3359 42.4083V40.1424V37.8764L38.7625 38.2805C40.3156 39.7547 40.8734 40.257 41.043 40.328C41.2617 40.4208 41.6555 40.4263 41.8742 40.3444C42.082 40.2679 42.3773 39.9786 42.4703 39.7656C42.5688 39.5417 42.5688 39.0886 42.4703 38.8538C42.4211 38.7391 41.6773 38.002 40.3703 36.768L38.3414 34.8625V32.3508L38.3359 29.8392L39.2 30.7128C41.1031 32.6348 46.1836 37.8546 46.2164 37.9146C46.2328 37.9474 46.2273 38.488 46.2055 39.1213C46.1836 39.7492 46.1508 40.8576 46.1289 41.5783C46.107 42.2991 46.0742 43.4675 46.0523 44.1719C46.0031 45.5424 46.025 45.7225 46.2492 46.0174C46.5227 46.3832 46.9656 46.5306 47.4195 46.4105C47.7313 46.3231 48.0922 45.9682 48.1688 45.6734C48.2234 45.4659 48.2508 44.7561 48.3164 42.179C48.3328 41.5456 48.3602 40.8358 48.3766 40.5901L48.4094 40.1478L49.4867 41.2453C50.0773 41.8514 51.2477 43.0416 52.0789 43.8989C52.9539 44.7943 53.6922 45.5096 53.8234 45.5751C54.2008 45.7826 54.7367 45.7116 55.0594 45.4113C55.382 45.111 55.4969 44.5322 55.3109 44.1391C55.2617 44.0408 54.0695 42.7741 52.6586 41.3272C51.2477 39.8803 50.0992 38.69 50.1102 38.6845C50.1156 38.6791 51.3898 38.7118 52.943 38.7555L55.7594 38.8429L56.0328 38.7064C56.2023 38.6245 56.3609 38.488 56.4648 38.3405C56.6016 38.144 56.6289 38.0511 56.6289 37.7672C56.6289 37.3413 56.4867 37.052 56.175 36.8336C55.9563 36.6807 55.907 36.6698 55.1906 36.6315C54.7805 36.6097 52.9648 36.5496 51.1602 36.5005L47.8789 36.4077L47.0586 35.5832C45.325 33.8305 39.9984 28.3759 39.8727 28.223L39.7414 28.0647H42.2406H44.7398L44.8875 28.223C47.7914 31.3244 48.6445 32.2089 48.8086 32.2853C49.093 32.4218 49.5305 32.4054 49.8258 32.2526C50.307 31.9959 50.5203 31.3626 50.2961 30.8493C50.2523 30.7456 49.6836 30.0904 49.0328 29.4024L47.857 28.1466L50.1102 28.1302L52.3633 28.1138L53.0469 28.8182C53.4242 29.2059 54.6656 30.4999 55.8086 31.6902C57.05 32.9842 57.9633 33.8906 58.0727 33.9397C58.4117 34.1035 58.6961 34.1035 59.0297 33.9397C59.407 33.7541 59.6039 33.4756 59.6477 33.077C59.7023 32.5583 59.6477 32.4928 57.4984 30.2542C56.4211 29.1349 55.5242 28.1903 55.5133 28.163C55.5023 28.1248 56.618 28.1193 58.8766 28.1466C61.3813 28.1739 62.3219 28.1684 62.4969 28.1248C62.9508 27.9992 63.3281 27.5187 63.3281 27.0546C63.3281 26.6014 62.9563 26.1155 62.5242 25.9953C62.3875 25.9571 61.1188 25.9353 58.9039 25.9353H55.4914L57.4984 23.9151C58.8984 22.5009 59.5383 21.8184 59.6094 21.66C60.0359 20.7209 59.0406 19.7872 58.1055 20.2404C58.018 20.2841 56.6891 21.5836 55.1523 23.1233L52.3633 25.9298L50.1539 25.8916L47.9445 25.8534L49.1039 24.6358C49.7438 23.9642 50.3016 23.3363 50.3453 23.2325C50.4383 23.0087 50.4438 22.621 50.3617 22.4026C50.2906 22.2115 50.0117 21.9112 49.793 21.802C49.5797 21.6873 49.0766 21.6873 48.8578 21.802C48.6609 21.9057 48.6281 21.933 46.5227 24.1444L44.8711 25.8807H42.4266C40.2664 25.8807 39.8016 25.8588 40.0203 25.7606C40.0422 25.7496 41.1141 24.6522 42.4102 23.3144C43.7008 21.9767 45.4453 20.1804 46.282 19.3177L47.8078 17.7452L51.707 17.7343L55.6063 17.7179L55.8141 17.5486C56.1914 17.2483 56.2461 17.1337 56.2461 16.6532C56.2461 16.26 56.2352 16.2109 56.0766 16.0143C55.9891 15.8997 55.8031 15.7523 55.6719 15.6813C55.4313 15.5612 55.4258 15.5612 52.6695 15.5612H49.9133L50.4273 15.0261C50.7117 14.7367 51.8875 13.5191 53.0469 12.3233C54.2063 11.1276 55.207 10.0574 55.2727 9.94822C55.4367 9.68067 55.4422 9.20019 55.2891 8.89988C55.0211 8.38118 54.3375 8.16278 53.818 8.43578C53.6813 8.5013 52.7734 9.42405 49.5523 12.7492C48.9672 13.3498 48.4695 13.8467 48.4477 13.8576C48.4203 13.8685 48.3984 12.6127 48.3984 11.0184V8.16278L48.2727 7.94437C48.207 7.82971 48.043 7.65499 47.9172 7.56763C47.7148 7.42567 47.6273 7.39837 47.343 7.39837C46.9164 7.39837 46.6266 7.54033 46.4023 7.85701L46.2383 8.0918L46.2219 12.1322L46.2109 16.1781L45.9813 16.4293C45.8555 16.5658 44.0891 18.4004 42.0547 20.4971L38.3633 24.3191L38.3469 21.8075L38.3305 19.3013L38.6805 18.9737C42.4539 15.4356 42.4156 15.4738 42.5141 15.0042C42.6125 14.562 42.1969 13.9395 41.7211 13.8139C41.4422 13.7375 41.0977 13.7812 40.8789 13.9177C40.7859 13.9723 40.1898 14.5128 39.55 15.1189C38.9102 15.7195 38.3742 16.2164 38.3633 16.2164C38.3469 16.2164 38.3359 15.2172 38.3414 13.9887V11.7664L41.1359 9.03639C42.7547 7.45297 43.9688 6.219 44.0289 6.10433C44.1547 5.86409 44.1656 5.42183 44.0563 5.17066C43.9633 4.95772 43.668 4.66834 43.4602 4.5919C43.2141 4.49908 42.782 4.52092 42.5578 4.63558C42.4484 4.69564 41.4531 5.62931 40.3484 6.71586L38.3414 8.68694L38.325 5.17612C38.3086 1.27218 38.3305 1.50696 37.9313 1.15752C37.6195 0.884516 37.2313 0.813535 36.8375 0.955497Z" fill="#4F667A"/>
</svg>
