<svg width="78" height="36" viewBox="0 0 78 36" fill="none" xmlns="http://www.w3.org/2000/svg">
<g filter="url(#filter0_d_17302_20)">
<path d="M6.29224 16.089C5.43277 16.3192 4.73523 17.1964 4.64804 18.1544C4.54839 19.212 5.15251 20.2323 6.11163 20.618L6.4604 20.7611H33.3967H60.3329L60.7378 20.5683C61.2547 20.3194 61.6408 19.9337 61.8837 19.4236C62.0643 19.0503 62.0768 18.9694 62.0768 18.3659C62.0768 17.7812 62.0581 17.6754 61.9024 17.3643C61.647 16.8418 61.292 16.4747 60.8125 16.2383L60.3952 16.033L33.4901 16.0206C11.9411 16.0143 6.52891 16.0268 6.29224 16.089Z" fill="#4F667A"/>
<path d="M14.4323 22.9945C13.5479 23.2122 12.894 23.9463 12.7134 24.9044C12.5203 25.9496 13.0995 27.0445 14.0773 27.4987L14.4323 27.6666H41.4308H68.4294L68.8404 27.4675C70.796 26.5033 70.522 23.5482 68.4294 23.0007C68.0993 22.9199 65.2905 22.9074 41.3997 22.9136C20.4673 22.9199 14.6752 22.9323 14.4323 22.9945Z" fill="#4F667A"/>
<path d="M9.76575 0.736449C8.90628 0.966633 8.20874 1.84382 8.12155 2.80189C8.0219 3.85949 8.62602 4.87977 9.58514 5.26548L9.93391 5.40857H36.8702H63.8064L64.2113 5.21571C64.7282 4.96686 65.1143 4.58115 65.3572 4.07101C65.5378 3.69774 65.5503 3.61686 65.5503 3.01341C65.5503 2.42862 65.5316 2.32285 65.3759 2.01179C65.1206 1.48921 64.7656 1.12216 64.286 0.885758L63.8687 0.680458L36.9636 0.668016C15.4146 0.661795 10.0024 0.674237 9.76575 0.736449Z" fill="#4F667A"/>
<path d="M17.9058 7.64197C17.0214 7.85971 16.3675 8.59381 16.1869 9.55187C15.9938 10.597 16.573 11.692 17.5508 12.1461L17.9058 12.3141H44.9044H71.9029L72.3139 12.115C74.2696 11.1507 73.9955 8.19565 71.9029 7.64819C71.5728 7.56731 68.764 7.55487 44.8732 7.56109C23.9408 7.56731 18.1487 7.57975 17.9058 7.64197Z" fill="#4F667A"/>
</g>
<defs>
<filter id="filter0_d_17302_20" x="0.637329" y="0.666626" width="77" height="35" filterUnits="userSpaceOnUse" color-interpolation-filters="sRGB">
<feFlood flood-opacity="0" result="BackgroundImageFix"/>
<feColorMatrix in="SourceAlpha" type="matrix" values="0 0 0 0 0 0 0 0 0 0 0 0 0 0 0 0 0 0 127 0" result="hardAlpha"/>
<feOffset dy="4"/>
<feGaussianBlur stdDeviation="2"/>
<feComposite in2="hardAlpha" operator="out"/>
<feColorMatrix type="matrix" values="0 0 0 0 0 0 0 0 0 0 0 0 0 0 0 0 0 0 0.25 0"/>
<feBlend mode="normal" in2="BackgroundImageFix" result="effect1_dropShadow_17302_20"/>
<feBlend mode="normal" in="SourceGraphic" in2="effect1_dropShadow_17302_20" result="shape"/>
</filter>
</defs>
</svg>
