<svg width="58" height="55" viewBox="0 0 58 55" fill="none" xmlns="http://www.w3.org/2000/svg">
<path d="M44.7643 33.4966C51.8279 33.4966 57.5541 26.0751 57.5541 16.9202C57.5541 7.76526 51.8279 0.34375 44.7643 0.34375C37.7007 0.34375 31.9745 7.76526 31.9745 16.9202C31.9745 26.0751 37.7007 33.4966 44.7643 33.4966Z" fill="url(#paint0_linear_2_531)"/>
<path d="M12.7898 54.2171C5.72662 54.2171 0 46.795 0 37.6407C0 28.4864 5.72662 21.0643 12.7898 21.0643C14.1231 21.0643 15.4053 21.3295 16.6139 21.8185C18.4141 14.1851 23.8945 8.63196 30.3757 8.63196C38.3214 8.63196 44.7642 16.9823 44.7642 27.2804C44.7642 28.2543 44.7067 29.2074 44.5948 30.1398C45.6435 29.6301 46.7754 29.3525 47.9617 29.3525C53.2599 29.3525 57.554 34.918 57.554 41.7848C57.554 48.6516 53.2599 54.2171 47.9617 54.2171H12.7898Z" fill="url(#paint1_linear_2_531)"/>
<path d="M15.9872 27.2804C15.9872 37.5785 22.4301 45.9289 30.3757 45.9289C37.5732 45.9289 43.5332 39.0828 44.5948 30.1399C45.6435 29.6301 46.7754 29.3525 47.9617 29.3525C53.2599 29.3525 57.554 34.918 57.554 41.7848C57.554 48.6516 53.2599 54.2171 47.9617 54.2171H12.7898C5.72662 54.2171 0 46.795 0 37.6407C0 28.4864 5.72662 21.0643 12.7898 21.0643C14.1231 21.0643 15.4053 21.3295 16.6139 21.8185C16.2047 23.5466 15.9872 25.3783 15.9872 27.2804Z" fill="url(#paint2_radial_2_531)"/>
<defs>
<linearGradient id="paint0_linear_2_531" x1="57.5541" y1="0.34375" x2="35.1462" y2="17.4102" gradientUnits="userSpaceOnUse">
<stop stop-color="#4F667A"/>
<stop offset="0.373958" stop-color="#4F667A"/>
</linearGradient>
<linearGradient id="paint1_linear_2_531" x1="28.777" y1="8.63196" x2="28.777" y2="54.2171" gradientUnits="userSpaceOnUse">
<stop stop-color="#9FC7FF"/>
<stop offset="1" stop-color="#9BC1F5"/>
</linearGradient>
<radialGradient id="paint2_radial_2_531" cx="0" cy="0" r="1" gradientUnits="userSpaceOnUse" gradientTransform="translate(17.6946 -63.2612) rotate(-90) scale(43.4248 10.7067)">
<stop stop-color="#486DA8" stop-opacity="0.4"/>
<stop offset="1" stop-color="#486DA8" stop-opacity="0"/>
</radialGradient>
</defs>
</svg>
