<svg width="69" height="64" viewBox="0 0 69 64" fill="none" xmlns="http://www.w3.org/2000/svg">
<path d="M15.7511 49.8888L11.7261 59.1491C11.1128 60.5647 11.799 62.1951 13.2633 62.788C14.7276 63.3809 16.4143 62.7176 17.0276 61.3021L21.0526 52.0417C21.666 50.6262 20.9798 48.9957 19.5155 48.4028C18.0511 47.8099 16.3645 48.4732 15.7511 49.8888V49.8888ZM46.4178 49.8888L42.3928 59.1491C41.7795 60.5647 42.4656 62.1951 43.93 62.788C45.3943 63.3809 47.081 62.7176 47.6943 61.3021L51.7193 52.0417C52.3326 50.6262 51.6465 48.9957 50.1821 48.4028C48.7178 47.8099 47.0311 48.4732 46.4178 49.8888V49.8888ZM31.0845 46.1831L27.0595 55.4435C26.4461 56.859 27.1323 58.4895 28.5966 59.0824C30.061 59.6753 31.7476 59.012 32.361 57.5965L36.386 48.3361C36.9993 46.9206 36.3131 45.2901 34.8488 44.6972C33.3845 44.1043 31.6978 44.7676 31.0845 46.1831Z" fill="#66AFEB"/>
<path d="M15.3333 40.7619C6.8655 40.7619 0 34.1251 0 25.9394C0 17.7536 6.8655 11.1169 15.3333 11.1169C16.9318 11.1169 18.469 11.354 19.918 11.7913C22.0762 4.96554 28.6465 0 36.4167 0C45.9425 0 53.6667 7.46683 53.6667 16.6753C53.6667 17.5461 53.5977 18.3984 53.4635 19.2322C54.7208 18.7764 56.0778 18.5281 57.5 18.5281C63.8518 18.5281 69 23.5048 69 29.645C69 35.7852 63.8518 40.7619 57.5 40.7619H15.3333Z" fill="url(#paint0_linear_2_526)"/>
<path d="M19.1667 16.6753C19.1667 25.8838 26.8908 33.3506 36.4167 33.3506C45.0455 33.3506 52.1908 27.2289 53.4635 19.2322C54.7208 18.7764 56.0778 18.5281 57.5 18.5281C63.8518 18.5281 69 23.5048 69 29.645C69 35.7852 63.8518 40.7619 57.5 40.7619H15.3333C6.8655 40.7619 0 34.1251 0 25.9394C0 17.7537 6.8655 11.1169 15.3333 11.1169C16.9318 11.1169 18.469 11.354 19.918 11.7913C19.4273 13.3366 19.1667 14.9744 19.1667 16.6753Z" fill="url(#paint1_radial_2_526)"/>
<defs>
<linearGradient id="paint0_linear_2_526" x1="34.5" y1="0" x2="34.5" y2="40.7619" gradientUnits="userSpaceOnUse">
<stop stop-color="#9FC7FF"/>
<stop offset="1" stop-color="#9BC1F5"/>
</linearGradient>
<radialGradient id="paint1_radial_2_526" cx="0" cy="0" r="1" gradientUnits="userSpaceOnUse" gradientTransform="translate(9.11173 -56.875) rotate(-90) scale(38.8301 12.836)">
<stop stop-color="#486DA8" stop-opacity="0.4"/>
<stop offset="1" stop-color="#486DA8" stop-opacity="0"/>
</radialGradient>
</defs>
</svg>
