<svg width="69" height="70" viewBox="0 0 69 70" fill="none" xmlns="http://www.w3.org/2000/svg">
<path opacity="0.32" d="M58.65 35.8537C64.3666 35.8537 69 31.2678 69 25.6098C69 19.9517 64.3666 15.3659 58.65 15.3659H58.543C58.612 14.8059 58.65 14.2356 58.65 13.6585C58.65 6.11561 52.471 0 44.85 0C38.8125 0 33.6789 3.83805 31.809 9.18195C30.4807 8.76195 29.0697 8.53658 27.6 8.53658C19.9789 8.53658 13.8 14.6522 13.8 22.1951C13.8 29.738 19.9789 35.8537 27.6 35.8537C28.7902 35.8537 29.946 35.7034 31.05 35.4234V35.8537H58.65Z" fill="#73A5E6"/>
<path d="M13.8 52.9268C6.17895 52.9268 0 46.8112 0 39.2683C0 31.7254 6.17895 25.6097 13.8 25.6097C15.2386 25.6097 16.6221 25.8283 17.9262 26.2312C19.8685 19.9415 25.7818 15.3658 32.775 15.3658C41.3482 15.3658 48.3 22.2463 48.3 30.7317C48.3 31.5341 48.2379 32.3195 48.1171 33.0878C49.2487 32.6678 50.47 32.439 51.75 32.439C57.4666 32.439 62.1 37.0249 62.1 42.6829C62.1 48.341 57.4666 52.9268 51.75 52.9268H13.8Z" fill="url(#paint0_linear_2_551)"/>
<path d="M17.25 30.7317C17.25 39.2171 24.2017 46.0975 32.775 46.0975C40.5409 46.0975 46.9717 40.4566 48.1171 33.0878C49.2487 32.6678 50.47 32.439 51.75 32.439C57.4666 32.439 62.1 37.0249 62.1 42.6829C62.1 48.341 57.4666 52.9268 51.75 52.9268H13.8C6.17895 52.9268 0 46.8112 0 39.2683C0 31.7254 6.17895 25.6097 13.8 25.6097C15.2386 25.6097 16.6221 25.8283 17.9262 26.2312C17.4846 27.6551 17.25 29.1644 17.25 30.7317Z" fill="url(#paint1_radial_2_551)"/>
<path d="M30.1692 39.2683L12.075 56.7782H20.8101L12.075 70L35.1607 51.4181L26.4255 52.8474L41.4 39.2683H30.1692Z" fill="#FFB300"/>
<defs>
<linearGradient id="paint0_linear_2_551" x1="31.05" y1="15.3658" x2="31.05" y2="52.9268" gradientUnits="userSpaceOnUse">
<stop stop-color="#9FC7FF"/>
<stop offset="1" stop-color="#9BC1F5"/>
</linearGradient>
<radialGradient id="paint1_radial_2_551" cx="0" cy="0" r="1" gradientUnits="userSpaceOnUse" gradientTransform="translate(24.0533 -50.7015) rotate(-90) scale(35.7809 11.5524)">
<stop stop-color="#486DA8" stop-opacity="0.4"/>
<stop offset="1" stop-color="#486DA8" stop-opacity="0"/>
</radialGradient>
</defs>
</svg>
