<svg width="70" height="71" viewBox="0 0 70 71" fill="none" xmlns="http://www.w3.org/2000/svg">
<path d="M15.5556 70.632C6.965 70.632 0 59.2347 0 45.1774C0 31.1201 6.965 19.7229 15.5556 19.7229C17.1772 19.7229 18.7367 20.1301 20.2067 20.8811C22.3961 9.15923 29.0617 0.631958 36.9444 0.631958C46.6083 0.631958 54.4444 13.4547 54.4444 29.2683C54.4444 30.7638 54.3744 32.2274 54.2383 33.6592C55.5139 32.8765 56.8906 32.4501 58.3333 32.4501C64.7772 32.4501 70 40.9965 70 51.541C70 62.0856 64.7772 70.632 58.3333 70.632H15.5556Z" fill="url(#paint0_linear_2_531)"/>
<path d="M19.4444 29.2684C19.4444 45.082 27.2806 57.9047 36.9444 57.9047C45.6983 57.9047 52.9472 47.392 54.2383 33.6593C55.5139 32.8765 56.8906 32.4502 58.3333 32.4502C64.7772 32.4502 70 40.9965 70 51.5411C70 62.0856 64.7772 70.632 58.3333 70.632H15.5556C6.965 70.632 0 59.2347 0 45.1774C0 31.1202 6.965 19.7229 15.5556 19.7229C17.1772 19.7229 18.7367 20.1302 20.2067 20.8811C19.7089 23.5347 19.4444 26.3474 19.4444 29.2684Z" fill="url(#paint1_radial_2_531)"/>
<defs>
<linearGradient id="paint0_linear_2_531" x1="35" y1="0.631958" x2="35" y2="70.632" gradientUnits="userSpaceOnUse">
<stop stop-color="#9FC7FF"/>
<stop offset="1" stop-color="#9BC1F5"/>
</linearGradient>
<radialGradient id="paint1_radial_2_531" cx="0" cy="0" r="1" gradientUnits="userSpaceOnUse" gradientTransform="translate(21.521 -109.766) rotate(-90) scale(66.6826 13.022)">
<stop stop-color="#486DA8" stop-opacity="0.4"/>
<stop offset="1" stop-color="#486DA8" stop-opacity="0"/>
</radialGradient>
</defs>
</svg>
