<svg width="70" height="54" viewBox="0 0 70 54" fill="none" xmlns="http://www.w3.org/2000/svg">
<path d="M15.5556 53.2171C6.965 53.2171 0 44.5524 0 33.8654C0 23.1785 6.965 14.5138 15.5556 14.5138C17.1772 14.5138 18.7367 14.8234 20.2067 15.3943C22.3961 6.48281 29.0617 0 36.9444 0C46.6083 0 54.4444 9.7484 54.4444 21.7706C54.4444 22.9075 54.3744 24.0203 54.2383 25.1088C55.5139 24.5137 56.8906 24.1896 58.3333 24.1896C64.7772 24.1896 70 30.6869 70 38.7033C70 46.7198 64.7772 53.2171 58.3333 53.2171H15.5556Z" fill="url(#paint0_linear_2_531)"/>
<path d="M19.4444 21.7706C19.4444 33.7928 27.2806 43.5412 36.9444 43.5412C45.6983 43.5412 52.9472 35.549 54.2383 25.1088C55.5139 24.5137 56.8906 24.1896 58.3333 24.1896C64.7772 24.1896 70 30.6869 70 38.7033C70 46.7197 64.7772 53.2171 58.3333 53.2171H15.5556C6.965 53.2171 0 44.5524 0 33.8654C0 23.1784 6.965 14.5137 15.5556 14.5137C17.1772 14.5137 18.7367 14.8234 20.2067 15.3942C19.7089 17.4116 19.4444 19.55 19.4444 21.7706Z" fill="url(#paint1_radial_2_531)"/>
<defs>
<linearGradient id="paint0_linear_2_531" x1="35" y1="0" x2="35" y2="53.2171" gradientUnits="userSpaceOnUse">
<stop stop-color="#9FC7FF"/>
<stop offset="1" stop-color="#9BC1F5"/>
</linearGradient>
<radialGradient id="paint1_radial_2_531" cx="0" cy="0" r="1" gradientUnits="userSpaceOnUse" gradientTransform="translate(21.521 -83.9296) rotate(-90) scale(50.6951 13.022)">
<stop stop-color="#486DA8" stop-opacity="0.4"/>
<stop offset="1" stop-color="#486DA8" stop-opacity="0"/>
</radialGradient>
</defs>
</svg>
